<?xml version="1.0" encoding="UTF-8" standalone="no"?>
<svg
   id="c5e7cda2-40db-4fe8-bf88-df9f364d243b"
   data-name="EGG"
   viewBox="0 0 737.01174 850.35934"
   version="1.1"
   sodipodi:docname="egg_f_monochrome.svg"
   inkscape:version="1.3.2 (091e20ef0f, 2023-11-25, custom)"
   width="737.01172"
   height="850.35931"
   xmlns:inkscape="http://www.inkscape.org/namespaces/inkscape"
   xmlns:sodipodi="http://sodipodi.sourceforge.net/DTD/sodipodi-0.dtd"
   xmlns="http://www.w3.org/2000/svg"
   xmlns:svg="http://www.w3.org/2000/svg">
  <sodipodi:namedview
     id="namedview7"
     pagecolor="#ffffff"
     bordercolor="#000000"
     borderopacity="0.25"
     inkscape:showpageshadow="2"
     inkscape:pageopacity="0.0"
     inkscape:pagecheckerboard="0"
     inkscape:deskcolor="#d1d1d1"
     inkscape:zoom="0.87215581"
     inkscape:cx="488.44483"
     inkscape:cy="250.52863"
     inkscape:window-width="1916"
     inkscape:window-height="1026"
     inkscape:window-x="0"
     inkscape:window-y="0"
     inkscape:window-maximized="0"
     inkscape:current-layer="c5e7cda2-40db-4fe8-bf88-df9f364d243b"
     showgrid="false" />
  <defs
     id="defs1">
    <style
       id="style1">.ffca8004-faa4-460f-9db2-0ce456f4982b{opacity:0.2;}.\34 34927b1-b62e-41a1-85d4-12dc9e893b7e{fill:#efbc47;}.\30 aa0fe2b-2b82-41a2-a160-82ad7d75e0ca,.\32 36ecd15-c982-4eb5-93ac-b08221203b4e,.\34 34927b1-b62e-41a1-85d4-12dc9e893b7e,.\38 d0f6148-f92c-4962-83ab-fd87f0e1ea6b,.d1103f53-cdd8-4e15-b9ef-ecdc9c405dfb{fill-rule:evenodd;}.d1103f53-cdd8-4e15-b9ef-ecdc9c405dfb{fill:#e2cdb3;}.\32 36ecd15-c982-4eb5-93ac-b08221203b4e{fill:#fcf1e3;}.\37 958d8f3-6a5a-4841-ae4a-57eb7ddf450c{fill:#20190a;}.\38 d0f6148-f92c-4962-83ab-fd87f0e1ea6b{fill:#f9f8f4;}.\30 aa0fe2b-2b82-41a2-a160-82ad7d75e0ca{fill:#f9e4c4;}</style>
  </defs>
  <title
     id="title1">egg_f</title>
  <path
     d="m 171.041,181.0195 -85,77.5898 -5.2129,-6.6367 C 50.5274,317.7463 31.1249,390.5744 28.7168,463.1484 l 28.0039,13.7422 113.3809,-80 28.3496,80 28.3496,-26.6797 56.75,29.3398 56.6895,-56 56.7011,80 56.6895,-53.3613 56.6894,53.3613 85,-106.7207 85,106.7207 28.3223,-26.3574 c -0.1951,-76.3504 -19.7698,-153.5206 -51.416,-222.9551 l -32.6758,30.2325 -85,-77.5801 -56.6992,51.7187 -56.6914,-25.8593 -56.6895,25.8593 -28.3496,-51.7187 -56.6894,51.7187 -56.6914,-25.8593 -28.3497,25.8593 z m 84.0801,130.791 c 15.6569,3e-4 28.3494,19.0369 28.3496,42.5195 -2e-4,23.4827 -12.6927,42.5193 -28.3496,42.5196 -15.6569,-3e-4 -28.3494,-19.0369 -28.3496,-42.5196 1e-4,-9.5818 2.116,-18.4211 5.6816,-25.5312 0,0 0,-0.01 0,-0.01 0.017,-0.034 0.039,-0.063 0.057,-0.098 0.7592,-1.504 1.5817,-2.9311 2.4649,-4.2695 0.01,-0.013 0.016,-0.028 0.025,-0.041 0.9072,-1.3713 1.8781,-2.6457 2.9023,-3.8223 0,0 0,0 0.01,-0.01 4.7732,-5.4808 10.739,-8.7441 17.2148,-8.7442 z m 226.7695,0 c 15.657,3e-4 28.3495,19.0369 28.3497,42.5195 -2e-4,23.4827 -12.6927,42.5193 -28.3497,42.5196 -15.6569,-3e-4 -28.3494,-19.0369 -28.3496,-42.5196 10e-5,-9.5818 2.116,-18.4211 5.6817,-25.5312 0,0 0,-0.01 0,-0.01 0.017,-0.034 0.039,-0.063 0.057,-0.098 5.1759,-10.2541 13.377,-16.8826 22.6132,-16.8828 z"
     style="fill:#ffffff;fill-opacity:0;fill-rule:evenodd;stroke:#000000;stroke-width:8;stroke-dasharray:none"
     id="path24" />
  <path
     d="m 255.1211,311.8105 c -6.4758,1e-4 -12.4416,3.2634 -17.2148,8.7442 2.0607,-2.3603 4.3456,-4.3092 6.7949,-5.7637 0.6364,-0.087 1.2776,-0.1343 1.9199,-0.1406 v -0.029 c 12.625,-10e-5 18.9457,15.2633 10.0195,24.1894 -8.9241,8.9241 -24.1807,2.6076 -24.1875,-10.0117 -3.5656,7.1101 -5.6815,15.9493 -5.6816,25.5312 2e-4,23.4828 12.6926,42.5193 28.3496,42.5196 15.657,-3e-4 28.3494,-19.0368 28.3496,-42.5196 -2e-4,-23.4827 -12.6926,-42.5192 -28.3496,-42.5195 z m -17.2207,8.75 c -1.0242,1.1766 -1.9951,2.451 -2.9023,3.8223 0.9076,-1.3688 1.8766,-2.6469 2.9023,-3.8223 z m -2.9277,3.8633 c -0.8832,1.3384 -1.7057,2.7655 -2.4649,4.2695 0.7585,-1.5023 1.5802,-2.9318 2.4649,-4.2695 z"
     style="fill:#20190a"
     id="path21" />
  <path
     d="m 481.8906,311.8105 c -9.2362,2e-4 -17.4373,6.6287 -22.6132,16.8828 3.1149,-6.151 7.3206,-11.0085 12.1933,-13.9023 0.6364,-0.087 1.2776,-0.1343 1.9199,-0.1406 v -0.029 c 12.6251,-10e-5 18.9457,15.2633 10.0196,24.1894 -8.9242,8.9242 -24.1808,2.6077 -24.1875,-10.0117 -3.5657,7.1101 -5.6816,15.9493 -5.6817,25.5312 2e-4,23.4828 12.6927,42.5193 28.3496,42.5196 15.657,-3e-4 28.3495,-19.0368 28.3497,-42.5196 -2e-4,-23.4827 -12.6927,-42.5192 -28.3497,-42.5195 z"
     style="fill:#20190a"
     id="path20" />
  <path
     d="m 473.3906,314.6211 v 0.029 c -0.6423,0.01 -1.2835,0.053 -1.9199,0.1406 -4.9,2.91 -9.13,7.8 -12.25,14 0,12.625 15.2633,18.9457 24.1895,10.0195 8.9261,-8.9261 2.6055,-24.1895 -10.0196,-24.1894 z"
     style="fill:#f9f8f4;fill-rule:evenodd"
     id="path19" />
  <path
     d="m 246.6211,314.6211 v 0.029 c -0.6423,0.01 -1.2835,0.053 -1.9199,0.1406 -4.9,2.91 -9.14,7.8 -12.25,14 -1e-4,12.625 15.2633,18.9457 24.1894,10.0195 8.9262,-8.9261 2.6055,-24.1895 -10.0195,-24.1894 z"
     style="fill:#f9f8f4;fill-rule:evenodd"
     id="path18" />
  <path
     d="M 369.5117,0 C 259.312,0 137.2103,99.4797 64.9004,231.6894 l 21.1406,26.9199 85,-77.5898 28.3496,77.5898 28.3497,-25.8593 56.6914,25.8593 56.6894,-51.7187 28.3496,51.7187 56.6895,-25.8593 56.6914,25.8593 56.6992,-51.7187 85,77.5801 52,-48.1114 C 604.6709,101.8296 481.0015,0 369.5117,0 Z"
     style="fill:#1a1a1a;fill-rule:evenodd"
     id="path17" />
  <path
     d="m 595.3203,396.83 -85,106.7207 -56.6894,-53.3613 -56.6895,53.3613 -56.7011,-80 -56.6895,56 -56.75,-29.3398 -28.3496,26.6797 -28.3496,-80 -113.3809,80 -55.8398,-27.4004 c 0,0 -0.8809,18.2494 -0.8809,27.3594 0,235.7497 165.0019,373.5097 368.5117,373.5097 203.5098,0 368.5,-137.76 368.5,-373.5097 0,-8.42 -0.25,-16.8727 -0.75,-25.3594 l -55.9414,52.0605 z"
     style="fill:#1a1a1a;fill-rule:evenodd"
     id="path16" />
</svg>
